<svg width="745.15625px" height="122px" xmlns="http://www.w3.org/2000/svg" viewBox="-122.578125 14 745.15625 122" style="background: rgba(154, 128, 129, 0);" preserveAspectRatio="xMidYMid"><defs><filter id="editing-hover" x="-100%" y="-100%" width="300%" height="300%"><feFlood flood-color="#e50914" result="flood"></feFlood><feComposite operator="in" in2="SourceAlpha" in="flood" result="shadow"></feComposite><feOffset dx="-4" dy="-4" in="SourceGraphic" result="offset-1"></feOffset><feOffset dx="4" dy="4" in="shadow" result="offset-2"></feOffset><feMerge><feMergeNode in="offset-2"></feMergeNode><feMergeNode in="offset-1"></feMergeNode></feMerge></filter></defs><g filter="url(#editing-hover)"><g transform="translate(-17.463223934173584, 104.1200008392334)"><path d="M6.21-31.17L6.21-31.17L6.21-31.17Q4.03-32.83 4.03-36.38L4.03-36.38L4.03-36.38Q4.03-39.94 6.37-41.79L6.37-41.79L6.37-41.79Q8.70-43.65 12.74-43.65L12.74-43.65L12.74-43.65Q15.30-43.65 21.38-42.75L21.38-42.75L25.73-42.11L25.73-42.11Q27.90-41.86 30.18-41.86L30.18-41.86L30.18-41.86Q32.45-41.86 33.98-42.82L33.98-42.82L33.98-42.82Q36.29-40.77 36.29-37.82L36.29-37.82L36.29-37.82Q36.29-34.88 33.66-32.77L33.66-32.77L33.66-32.77Q30.98-30.53 27.52-30.53L27.52-30.53L27.52-30.53Q25.86-30.53 23.17-30.98L23.17-30.98L23.17-30.98Q20.03-21.12 20.03-14.27L20.03-14.27L20.03-14.27Q20.03-7.42 23.49-3.84L23.49-3.84L23.49-3.84Q21.89-0.96 19.52 0.16L19.52 0.16L19.52 0.16Q17.15 1.28 13.60 1.28L13.60 1.28L13.60 1.28Q10.05 1.28 7.84-0.67L7.84-0.67L7.84-0.67Q5.63-2.62 5.63-6.66L5.63-6.66L5.63-6.66Q5.63-11.33 8.19-19.01L8.19-19.01L8.19-19.01Q10.75-26.62 14.59-32.45L14.59-32.45L14.59-32.45Q12.74-32.64 10.82-32.64L10.82-32.64L10.82-32.64Q6.85-32.64 6.21-31.17ZM53.89-17.98L53.89-17.98L53.89-17.98Q56.19-22.08 56.19-26.24L56.19-26.24L56.19-26.24Q56.19-28.99 54.21-28.99L54.21-28.99L54.21-28.99Q52.67-28.99 51.07-26.37L51.07-26.37L51.07-26.37Q49.41-23.74 48.90-20.35L48.90-20.35L45.57 0L32.32 1.28L38.85-32.64L49.41-33.92L48.26-27.46L48.26-27.46Q51.39-33.92 58.43-33.92L58.43-33.92L58.43-33.92Q62.14-33.92 64.16-32L64.16-32L64.16-32Q66.18-30.08 66.18-26.14L66.18-26.14L66.18-26.14Q66.18-22.21 63.58-19.71L63.58-19.71L63.58-19.71Q60.99-17.22 56.58-17.22L56.58-17.22L56.58-17.22Q54.66-17.22 53.89-17.98ZM69.98-1.92L69.98-1.92L69.98-1.92Q68.48-3.58 67.81-6.21L67.81-6.21L67.81-6.21Q67.14-8.83 67.14-13.12L67.14-13.12L67.14-13.12Q67.14-17.41 68.61-21.31L68.61-21.31L68.61-21.31Q70.08-25.22 72.77-28.03L72.77-28.03L72.77-28.03Q78.27-33.92 87.36-33.92L87.36-33.92L87.36-33.92Q90.62-33.92 92.99-32.83L92.99-32.83L103.94-33.92L99.20-8.96L99.20-8.96Q99.01-8.19 99.01-6.78L99.01-6.78L99.01-6.78Q99.01-5.38 99.87-4.48L99.87-4.48L99.87-4.48Q100.74-3.58 102.02-3.46L102.02-3.46L102.02-3.46Q101.38-1.28 99.04 0L99.04 0L99.04 0Q96.70 1.28 94.08 1.28L94.08 1.28L94.08 1.28Q91.46 1.28 89.70 0.29L89.70 0.29L89.70 0.29Q87.94-0.70 87.42-2.37L87.42-2.37L87.42-2.37Q86.40-0.77 84.22 0.26L84.22 0.26L84.22 0.26Q82.05 1.28 79.14 1.28L79.14 1.28L79.14 1.28Q76.22 1.28 73.86 0.51L73.86 0.51L73.86 0.51Q71.49-0.26 69.98-1.92ZM83.49-27.90L83.49-27.90L83.49-27.90Q82.75-26.75 82.11-24.80L82.11-24.80L82.11-24.80Q81.47-22.85 80.42-17.63L80.42-17.63L80.42-17.63Q79.36-12.42 79.36-8.70L79.36-8.70L79.36-8.70Q79.36-4.99 79.94-3.90L79.94-3.90L79.94-3.90Q80.51-2.82 81.54-2.82L81.54-2.82L81.54-2.82Q83.58-2.82 85.09-4.77L85.09-4.77L85.09-4.77Q86.59-6.72 87.17-10.18L87.17-10.18L90.56-28.93L90.56-28.93Q89.22-30.08 87.65-30.08L87.65-30.08L87.65-30.08Q86.08-30.08 85.15-29.57L85.15-29.57L85.15-29.57Q84.22-29.06 83.49-27.90ZM134.46 1.28L134.46 1.28L134.46 1.28Q126.72 1.28 126.72-4.74L126.72-4.74L126.72-4.74Q126.78-6.40 127.30-9.22L127.30-9.22L128.45-15.10L128.45-15.10Q130.18-23.42 130.18-25.28L130.18-25.28L130.18-25.28Q130.18-28.99 128-28.99L128-28.99L128-28.99Q124.35-28.99 122.43-19.46L122.43-19.46L118.66 0L105.79 1.28L112.45-32.70L122.94-33.92L121.92-27.65L121.92-27.65Q124.93-33.92 134.14-33.92L134.14-33.92L134.14-33.92Q138.62-33.92 140.51-32.03L140.51-32.03L140.51-32.03Q142.40-30.14 142.40-25.92L142.40-25.92L142.40-25.92Q142.40-21.95 140.35-12.67L140.35-12.67L140.35-12.67Q139.39-8.51 139.39-6.94L139.39-6.94L139.39-6.94Q139.39-5.38 140.26-4.48L140.26-4.48L140.26-4.48Q141.12-3.58 142.40-3.46L142.40-3.46L142.40-3.46Q141.76-1.28 139.55 0L139.55 0L139.55 0Q137.34 1.28 134.46 1.28ZM161.47 1.28L161.47 1.28L161.47 1.28Q147.39 1.28 147.39-11.97L147.39-11.97L147.39-11.97Q147.39-21.38 152.58-27.46L152.58-27.46L152.58-27.46Q158.08-33.92 167.62-33.92L167.62-33.92L167.62-33.92Q174.53-33.92 178.05-30.72L178.05-30.72L178.05-30.72Q181.57-27.52 181.57-20.80L181.57-20.80L181.57-20.80Q181.57-10.56 176.06-4.61L176.06-4.61L176.06-4.61Q170.69 1.28 161.47 1.28ZM163.14-26.56L163.14-26.56L163.14-26.56Q162.37-24.83 161.76-22.24L161.76-22.24L161.76-22.24Q161.15-19.65 160.38-15.55L160.38-15.55L160.38-15.55Q159.62-11.46 159.62-6.40L159.62-6.40L159.62-6.40Q159.62-4.74 160.16-3.65L160.16-3.65L160.16-3.65Q160.70-2.56 162.18-2.56L162.18-2.56L162.18-2.56Q163.65-2.56 164.58-3.26L164.58-3.26L164.58-3.26Q165.50-3.97 166.21-5.63L166.21-5.63L166.21-5.63Q167.49-8.58 168.51-14.05L168.51-14.05L168.51-14.05Q169.54-19.52 169.63-21.89L169.63-21.89L169.63-21.89Q169.73-24.26 169.73-26.02L169.73-26.02L169.73-26.02Q169.73-27.78 169.22-28.93L169.22-28.93L169.22-28.93Q168.70-30.08 167.26-30.08L167.26-30.08L167.26-30.08Q165.82-30.08 164.86-29.18L164.86-29.18L164.86-29.18Q163.90-28.29 163.14-26.56ZM212.42 1.28L212.42 1.28L212.42 1.28Q204.67 1.28 204.67-4.74L204.67-4.74L204.67-4.74Q204.74-6.40 205.25-9.22L205.25-9.22L206.40-15.10L206.40-15.10Q208.13-23.42 208.13-25.28L208.13-25.28L208.13-25.28Q208.13-28.99 205.95-28.99L205.95-28.99L205.95-28.99Q202.30-28.99 200.38-19.46L200.38-19.46L196.61 0L183.74 1.28L190.40-32.70L200.90-33.92L199.87-27.65L199.87-27.65Q202.88-33.92 212.10-33.92L212.10-33.92L212.10-33.92Q216.58-33.92 218.46-32.03L218.46-32.03L218.46-32.03Q220.35-30.14 220.35-25.92L220.35-25.92L220.35-25.92Q220.35-21.95 218.30-12.67L218.30-12.67L218.30-12.67Q217.34-8.51 217.34-6.94L217.34-6.94L217.34-6.94Q217.34-5.38 218.21-4.48L218.21-4.48L218.21-4.48Q219.07-3.58 220.35-3.46L220.35-3.46L220.35-3.46Q219.71-1.28 217.50 0L217.50 0L217.50 0Q215.30 1.28 212.42 1.28ZM216.58 7.62L216.58 7.62L216.58 7.62Q219.90 7.36 222.34 3.20L222.34 3.20L222.34 3.20Q224.19 0 225.41-5.89L225.41-5.89L230.59-32.64L243.46-33.92L238.02-5.89L238.02-5.89Q235.90 4.80 232.64 8.32L232.64 8.32L232.64 8.32Q230.91 10.24 228.67 10.88L228.67 10.88L228.67 10.88Q226.43 11.52 223.87 11.52L223.87 11.52L223.87 11.52Q218.50 11.52 216.58 7.62ZM231.62-41.54L231.62-41.54L231.62-41.54Q231.62-44.03 233.70-45.38L233.70-45.38L233.70-45.38Q235.78-46.72 238.78-46.72L238.78-46.72L238.78-46.72Q241.79-46.72 243.62-45.38L243.62-45.38L243.62-45.38Q245.44-44.03 245.44-41.54L245.44-41.54L245.44-41.54Q245.44-39.04 243.42-37.76L243.42-37.76L243.42-37.76Q241.41-36.48 238.40-36.48L238.40-36.48L238.40-36.48Q235.39-36.48 233.50-37.76L233.50-37.76L233.50-37.76Q231.62-39.04 231.62-41.54ZM248.54-1.92L248.54-1.92L248.54-1.92Q247.04-3.58 246.37-6.21L246.37-6.21L246.37-6.21Q245.70-8.83 245.70-13.12L245.70-13.12L245.70-13.12Q245.70-17.41 247.17-21.31L247.17-21.31L247.17-21.31Q248.64-25.22 251.33-28.03L251.33-28.03L251.33-28.03Q256.83-33.92 265.92-33.92L265.92-33.92L265.92-33.92Q269.18-33.92 271.55-32.83L271.55-32.83L282.50-33.92L277.76-8.96L277.76-8.96Q277.57-8.19 277.57-6.78L277.57-6.78L277.57-6.78Q277.57-5.38 278.43-4.48L278.43-4.48L278.43-4.48Q279.30-3.58 280.58-3.46L280.58-3.46L280.58-3.46Q279.94-1.28 277.60 0L277.60 0L277.60 0Q275.26 1.28 272.64 1.28L272.64 1.28L272.64 1.28Q270.02 1.28 268.26 0.29L268.26 0.29L268.26 0.29Q266.50-0.70 265.98-2.37L265.98-2.37L265.98-2.37Q264.96-0.77 262.78 0.26L262.78 0.26L262.78 0.26Q260.61 1.28 257.70 1.28L257.70 1.28L257.70 1.28Q254.78 1.28 252.42 0.51L252.42 0.51L252.42 0.51Q250.05-0.26 248.54-1.92ZM262.05-27.90L262.05-27.90L262.05-27.90Q261.31-26.75 260.67-24.80L260.67-24.80L260.67-24.80Q260.03-22.85 258.98-17.63L258.98-17.63L258.98-17.63Q257.92-12.42 257.92-8.70L257.92-8.70L257.92-8.70Q257.92-4.99 258.50-3.90L258.50-3.90L258.50-3.90Q259.07-2.82 260.10-2.82L260.10-2.82L260.10-2.82Q262.14-2.82 263.65-4.77L263.65-4.77L263.65-4.77Q265.15-6.72 265.73-10.18L265.73-10.18L269.12-28.93L269.12-28.93Q267.78-30.08 266.21-30.08L266.21-30.08L266.21-30.08Q264.64-30.08 263.71-29.57L263.71-29.57L263.71-29.57Q262.78-29.06 262.05-27.90ZM302.46-30.34L302.46-30.34L302.46-30.34Q305.92-33.92 313.22-33.92L313.22-33.92L313.22-33.92Q317.25-33.92 319.46-31.78L319.46-31.78L319.46-31.78Q321.66-29.63 321.66-25.70L321.66-25.70L321.66-25.70Q321.66-21.76 319.46-18.98L319.46-18.98L319.46-18.98Q317.25-16.19 313.15-15.04L313.15-15.04L313.15-15.04Q313.47-13.76 313.92-12.42L313.92-12.42L314.82-9.86L314.82-9.86Q316.03-6.59 316.99-5.44L316.99-5.44L316.99-5.44Q317.95-4.29 319.23-3.90L319.23-3.90L319.23-3.90Q318.53-1.28 315.97 0.13L315.97 0.13L315.97 0.13Q313.92 1.28 311.10 1.28L311.10 1.28L311.10 1.28Q302.85 1.28 301.76-11.46L301.76-11.46L301.76-11.46Q301.57-13.25 301.57-15.04L301.57-15.04L301.57-15.04Q304.77-15.94 307.01-18.94L307.01-18.94L307.01-18.94Q309.25-21.95 309.25-25.47L309.25-25.47L309.25-25.47Q309.25-28.99 306.75-28.99L306.75-28.99L306.75-28.99Q304.96-28.99 303.55-27.01L303.55-27.01L303.55-27.01Q302.14-25.02 301.50-21.63L301.50-21.63L297.28 0L284.35 1.28L293.31-44.80L306.18-46.08L304.70-38.46L304.70-38.46Q303.74-33.09 302.46-30.34ZM327.39-1.92L327.39-1.92L327.39-1.92Q325.89-3.58 325.22-6.21L325.22-6.21L325.22-6.21Q324.54-8.83 324.54-13.12L324.54-13.12L324.54-13.12Q324.54-17.41 326.02-21.31L326.02-21.31L326.02-21.31Q327.49-25.22 330.18-28.03L330.18-28.03L330.18-28.03Q335.68-33.92 344.77-33.92L344.77-33.92L344.77-33.92Q348.03-33.92 350.40-32.83L350.40-32.83L361.34-33.92L356.61-8.96L356.61-8.96Q356.42-8.19 356.42-6.78L356.42-6.78L356.42-6.78Q356.42-5.38 357.28-4.48L357.28-4.48L357.28-4.48Q358.14-3.58 359.42-3.46L359.42-3.46L359.42-3.46Q358.78-1.28 356.45 0L356.45 0L356.45 0Q354.11 1.28 351.49 1.28L351.49 1.28L351.49 1.28Q348.86 1.28 347.10 0.29L347.10 0.29L347.10 0.29Q345.34-0.70 344.83-2.37L344.83-2.37L344.83-2.37Q343.81-0.77 341.63 0.26L341.63 0.26L341.63 0.26Q339.46 1.28 336.54 1.28L336.54 1.28L336.54 1.28Q333.63 1.28 331.26 0.51L331.26 0.51L331.26 0.51Q328.90-0.26 327.39-1.92ZM340.90-27.90L340.90-27.90L340.90-27.90Q340.16-26.75 339.52-24.80L339.52-24.80L339.52-24.80Q338.88-22.85 337.82-17.63L337.82-17.63L337.82-17.63Q336.77-12.42 336.77-8.70L336.77-8.70L336.77-8.70Q336.77-4.99 337.34-3.90L337.34-3.90L337.34-3.90Q337.92-2.82 338.94-2.82L338.94-2.82L338.94-2.82Q340.99-2.82 342.50-4.77L342.50-4.77L342.50-4.77Q344.00-6.72 344.58-10.18L344.58-10.18L347.97-28.93L347.97-28.93Q346.62-30.08 345.06-30.08L345.06-30.08L345.06-30.08Q343.49-30.08 342.56-29.57L342.56-29.57L342.56-29.57Q341.63-29.06 340.90-27.90ZM393.28-3.52L393.28-3.52L393.28-3.52Q391.30 1.28 384.96 1.28L384.96 1.28L384.96 1.28Q381.76 1.28 379.71-0.96L379.71-0.96L379.71-0.96Q378.05-2.82 378.05-4.93L378.05-4.93L378.05-4.93Q378.05-9.73 380.29-20.22L380.29-20.22L384.96-44.80L397.95-46.08L391.74-13.70L391.74-13.70Q390.66-8.96 390.66-7.30L390.66-7.30L390.66-7.30Q390.66-3.65 393.28-3.52ZM401.50-1.92L401.50-1.92L401.50-1.92Q400.00-3.58 399.33-6.21L399.33-6.21L399.33-6.21Q398.66-8.83 398.66-13.12L398.66-13.12L398.66-13.12Q398.66-17.41 400.13-21.31L400.13-21.31L400.13-21.31Q401.60-25.22 404.29-28.03L404.29-28.03L404.29-28.03Q409.79-33.92 418.88-33.92L418.88-33.92L418.88-33.92Q422.14-33.92 424.51-32.83L424.51-32.83L435.46-33.92L430.72-8.96L430.72-8.96Q430.53-8.19 430.53-6.78L430.53-6.78L430.53-6.78Q430.53-5.38 431.39-4.48L431.39-4.48L431.39-4.48Q432.26-3.58 433.54-3.46L433.54-3.46L433.54-3.46Q432.90-1.28 430.56 0L430.56 0L430.56 0Q428.22 1.28 425.60 1.28L425.60 1.28L425.60 1.28Q422.98 1.28 421.22 0.29L421.22 0.29L421.22 0.29Q419.46-0.70 418.94-2.37L418.94-2.37L418.94-2.37Q417.92-0.77 415.74 0.26L415.74 0.26L415.74 0.26Q413.57 1.28 410.66 1.28L410.66 1.28L410.66 1.28Q407.74 1.28 405.38 0.51L405.38 0.51L405.38 0.51Q403.01-0.26 401.50-1.92ZM415.01-27.90L415.01-27.90L415.01-27.90Q414.27-26.75 413.63-24.80L413.63-24.80L413.63-24.80Q412.99-22.85 411.94-17.63L411.94-17.63L411.94-17.63Q410.88-12.42 410.88-8.70L410.88-8.70L410.88-8.70Q410.88-4.99 411.46-3.90L411.46-3.90L411.46-3.90Q412.03-2.82 413.06-2.82L413.06-2.82L413.06-2.82Q415.10-2.82 416.61-4.77L416.61-4.77L416.61-4.77Q418.11-6.72 418.69-10.18L418.69-10.18L422.08-28.93L422.08-28.93Q420.74-30.08 419.17-30.08L419.17-30.08L419.17-30.08Q417.60-30.08 416.67-29.57L416.67-29.57L416.67-29.57Q415.74-29.06 415.01-27.90ZM438.08-3.07L438.08-3.07L446.02-44.80L459.01-46.08L457.02-36.29L457.02-36.29Q456.32-33.28 455.42-31.17L455.42-31.17L455.42-31.17Q456.83-32.96 459.90-33.66L459.90-33.66L459.90-33.66Q460.80-33.92 461.89-33.92L461.89-33.92L461.89-33.92Q467.84-33.92 471.10-30.30L471.10-30.30L471.10-30.30Q474.37-26.69 474.37-19.71L474.37-19.71L474.37-19.71Q474.37-10.62 469.18-4.93L469.18-4.93L469.18-4.93Q463.62 1.28 453.50 1.28L453.50 1.28L453.50 1.28Q446.53 1.28 441.28-1.02L441.28-1.02L441.28-1.02Q439.42-1.86 438.08-3.07ZM454.34-22.40L450.94-3.65L450.94-3.65Q452.29-2.50 453.95-2.50L453.95-2.50L453.95-2.50Q455.62-2.50 456.58-3.14L456.58-3.14L456.58-3.14Q457.54-3.78 458.24-5.06L458.24-5.06L458.24-5.06Q460.16-8.51 461.70-19.07L461.70-19.07L461.70-19.07Q462.14-22.08 462.14-25.09L462.14-25.09L462.14-25.09Q462.14-28.10 461.47-29.06L461.47-29.06L461.47-29.06Q460.80-30.02 459.52-30.02L459.52-30.02L459.52-30.02Q455.62-30.02 454.34-22.40L454.34-22.40ZM504.13-10.82L504.13-10.82L504.13-10.82Q505.73-9.73 505.73-7.33L505.73-7.33L505.73-7.33Q505.73-4.93 504.51-3.39L504.51-3.39L504.51-3.39Q503.30-1.86 501.31-0.83L501.31-0.83L501.31-0.83Q497.22 1.28 492.80 1.28L492.80 1.28L492.80 1.28Q488.38 1.28 485.79 0.32L485.79 0.32L485.79 0.32Q483.20-0.64 481.47-2.43L481.47-2.43L481.47-2.43Q478.08-5.82 478.08-12.03L478.08-12.03L478.08-12.03Q478.08-21.70 483.33-27.58L483.33-27.58L483.33-27.58Q488.96-33.92 498.75-33.92L498.75-33.92L498.75-33.92Q504.83-33.92 507.84-31.36L507.84-31.36L507.84-31.36Q510.08-29.44 510.08-26.30L510.08-26.30L510.08-26.30Q510.08-15.04 490.62-15.04L490.62-15.04L490.62-15.04Q490.37-13.38 490.37-11.97L490.37-11.97L490.37-11.97Q490.37-9.02 491.68-7.90L491.68-7.90L491.68-7.90Q492.99-6.78 495.42-6.78L495.42-6.78L495.42-6.78Q497.86-6.78 500.45-7.90L500.45-7.90L500.45-7.90Q503.04-9.02 504.13-10.82ZM491.07-17.79L491.07-17.79L491.07-17.79Q495.62-17.79 498.24-20.61L498.24-20.61L498.24-20.61Q500.86-23.30 500.86-27.58L500.86-27.58L500.86-27.58Q500.86-29.06 500.32-29.86L500.32-29.86L500.32-29.86Q499.78-30.66 498.69-30.66L498.69-30.66L498.69-30.66Q497.60-30.66 496.67-30.24L496.67-30.24L496.67-30.24Q495.74-29.82 494.78-28.42L494.78-28.42L494.78-28.42Q492.42-25.22 491.07-17.79ZM527.55-3.52L527.55-3.52L527.55-3.52Q525.57 1.28 519.23 1.28L519.23 1.28L519.23 1.28Q516.03 1.28 513.98-0.96L513.98-0.96L513.98-0.96Q512.32-2.82 512.32-4.93L512.32-4.93L512.32-4.93Q512.32-9.73 514.56-20.22L514.56-20.22L519.23-44.80L532.22-46.08L526.02-13.70L526.02-13.70Q524.93-8.96 524.93-7.30L524.93-7.30L524.93-7.30Q524.93-3.65 527.55-3.52Z" fill="#ffffff"></path></g></g><style>text {
  font-size: 64px;
  font-family: Arial Black;
  dominant-baseline: central;
  text-anchor: middle;
}</style></svg>